<?xml version="1.0" encoding="UTF-8"?>
<svg id="design" xmlns="http://www.w3.org/2000/svg" width="30.48mm" height="128.5mm" viewBox="0 0 86.4 364.25">
  <rect id="BG" width="86.4" height="366.7" style="fill: #231f20;"/>
  <g>
    <g id="EGG_ILLO" data-name="EGG ILLO">
      <path d="m75.67,6.38c0-.1-.02-.2-.03-.3-1.38-14.01-10.01-35.1-11.21-37.97-.03-.08-.06-.15-.1-.23-.03-.06-.04-.1-.04-.1h0c-3.54-8.14-11.65-13.84-21.09-13.84s-17.55,5.7-21.09,13.84h0s-.02.04-.04.1c-.03.08-.06.15-.1.23-1.19,2.86-9.83,23.96-11.21,37.97-.01.1-.02.2-.03.3-.1,1.11-.16,2.18-.16,3.19,0,18.02,14.61,32.63,32.63,32.63s32.63-14.61,32.63-32.63c0-1.01-.06-2.07-.16-3.19Z" style="fill: #fff;"/>
      <circle cx="43.2" cy="11.67" r="18.61" style="fill: #e6df17;"/>
    </g>
    <g id="EGG">
      <path d="m28.57,26.95H10.48v-14.78h17.83v3.8h-9.68v1.82h9.14v3.48h-9.14v1.88h9.94v3.8Z" style="fill: #231f20;"/>
      <path d="m31.08,25.63c-1.53-1.23-2.37-3.14-2.5-5.75v-.04c-.13-2.57.74-4.52,2.61-5.84s4.8-2.04,8.76-2.18c3.54-.12,6.26.22,8.18,1.02s3.06,2.06,3.43,3.81l-8.35,1.07c-.22-.66-.58-1.15-1.08-1.46s-1.16-.45-1.96-.43c-1.14.04-1.97.35-2.49.94s-.75,1.47-.69,2.64v.26c.08,1.2.4,2.08.98,2.64s1.44.83,2.58.79c.83-.03,1.49-.2,1.96-.52s.78-.8.91-1.42l-3.67.12-.15-2.95,12.27-.41.44,8.59-6.65.22c-.03-.15-.04-.28-.05-.37-.04-.71.19-1.67.69-2.89l-.36-.1c-.71,1.26-1.73,2.22-3.06,2.87s-3,1.01-5.02,1.07c-3,.1-5.26-.46-6.79-1.69Z" style="fill: #231f20;"/>
      <path d="m54.76,25.32c-1.47-1.28-2.2-3.22-2.2-5.83v-.04c0-2.58.97-4.49,2.91-5.75s4.9-1.88,8.87-1.88c3.54,0,6.25.43,8.12,1.29s2.95,2.16,3.23,3.92l-8.4.79c-.18-.67-.52-1.17-1.01-1.49s-1.13-.49-1.94-.49c-1.14,0-1.99.28-2.54.85s-.83,1.44-.83,2.62v.26c0,1.2.28,2.09.83,2.67s1.4.88,2.54.88c.83,0,1.49-.15,1.99-.46s.82-.77.99-1.39h-3.67v-2.96h12.28v8.6h-6.65c-.02-.15-.03-.28-.03-.37,0-.71.28-1.66.84-2.86l-.35-.12c-.77,1.24-1.84,2.16-3.2,2.77s-3.05.91-5.07.91c-3,0-5.23-.64-6.7-1.92Z" style="fill: #231f20;"/>
    </g>
  </g>
  <g id="REL_slopes" data-name="REL slopes">
    <path d="m54.29,191.5c.16,0,.31-.06.43-.18.24-.24.24-.63,0-.87l-5.52-5.52c-.24-.24-.63-.24-.87,0-.24.24-.24.63,0,.87l5.52,5.52c.12.12.28.18.43.18Z" style="fill: #fff;"/>
    <path d="m54.29,184.14c.34,0,.61-.27.61-.61,0-.34-.27-.61-.61-.61-.2,0-4.91-.08-4.91-4.91,0-.34-.27-.61-.61-.61s-.61.27-.61.61c0,6.07,6.08,6.14,6.14,6.14Z" style="fill: #fff;"/>
    <path d="m54.29,198.87h0c.34,0,.61-.27.61-.61,0-.06-.07-6.14-6.14-6.14-.34,0-.61.27-.61.61,0,.34.27.61.61.61,4.83,0,4.91,4.71,4.91,4.91,0,.34.28.61.61.61Z" style="fill: #fff;"/>
  </g>
  <g id="ATT_slopes" data-name="ATT slopes">
    <path d="m5.57,191.5c-.16,0-.31-.06-.43-.18-.24-.24-.24-.63,0-.87l5.52-5.52c.24-.24.63-.24.87,0,.24.24.24.63,0,.87l-5.52,5.52c-.12.12-.28.18-.43.18Z" style="fill: #fff;"/>
    <path d="m5.57,184.14c-.34,0-.61-.27-.61-.61s.27-.61.61-.61c.2,0,4.91-.08,4.91-4.91,0-.34.27-.61.61-.61s.61.27.61.61c0,6.07-6.08,6.14-6.14,6.14Z" style="fill: #fff;"/>
    <path d="m5.57,198.87h0c-.34,0-.61-.27-.61-.61,0-.06.07-6.14,6.14-6.14.34,0,.61.27.61.61s-.27.61-.61.61c-4.83,0-4.91,4.71-4.91,4.91,0,.34-.28.61-.61.61Z" style="fill: #fff;"/>
  </g>
  <g>
    <path d="m14.04,221.83h-1.48l2.09-10.94h1.91l2.12,10.94h-1.6l-.36-2.04h-2.3l-.37,2.04Zm.57-3.16h1.9l-.5-2.98c-.16-.91-.28-1.88-.38-2.91h-.16c-.09,1.01-.21,1.98-.37,2.91l-.5,2.98Z" style="fill: #fff;"/>
    <path d="m22.13,221.83h-1.53v-9.69h-1.91v-1.25h5.36v1.25h-1.91v9.69Z" style="fill: #fff;"/>
    <path d="m28.34,221.83h-1.53v-9.69h-1.91v-1.25h5.36v1.25h-1.91v9.69Z" style="fill: #fff;"/>
  </g>
  <g>
    <path d="m56.63,221.83v-10.94h2.62c.85,0,1.49.2,1.93.61.43.41.65,1.01.65,1.82v.73c0,.6-.14,1.08-.43,1.44-.28.35-.7.57-1.24.66v.13c.27.07.48.17.64.3.16.12.29.31.39.56.1.25.18.6.25,1.05l.19,1.34c.1.67.2,1.16.29,1.47.1.31.22.53.37.66l-.03.17h-1.7c-.1-.22-.18-.49-.25-.82-.07-.33-.13-.81-.21-1.44l-.16-1.26c-.05-.43-.12-.75-.2-.96-.08-.22-.19-.37-.34-.45-.14-.08-.34-.12-.6-.12h-.65v5.05h-1.53Zm2.45-6.23c.42,0,.72-.1.92-.3s.29-.52.29-.96v-.96c0-.44-.1-.76-.29-.96s-.5-.3-.92-.3h-.92v3.48h.92Z" style="fill: #fff;"/>
    <path d="m67.81,221.83h-4.41v-10.94h4.29v1.25h-2.76v3.33h2.5v1.15h-2.5v3.96h2.88v1.25Z" style="fill: #fff;"/>
    <path d="m73.28,221.83h-4.12v-10.94h1.53v9.69h2.59v1.25Z" style="fill: #fff;"/>
  </g>
  <g>
    <path d="m12.66,83.75h-1.53v-9.69h-1.91v-1.25h5.36v1.25h-1.91v9.69Z" style="fill: #fff;"/>
    <path d="m15.72,83.75v-10.94h2.62c.85,0,1.49.2,1.93.61.43.41.65,1.01.65,1.82v.73c0,.6-.14,1.08-.43,1.44-.28.35-.7.57-1.24.66v.13c.27.07.48.17.64.3.16.12.29.31.39.56.1.25.18.6.25,1.05l.19,1.34c.1.67.2,1.16.29,1.47.1.31.22.53.37.66l-.03.17h-1.7c-.1-.22-.18-.49-.25-.82-.07-.33-.13-.81-.21-1.44l-.16-1.26c-.05-.43-.12-.75-.2-.96-.08-.22-.19-.37-.34-.45-.14-.08-.34-.12-.6-.12h-.65v5.05h-1.53Zm2.45-6.23c.42,0,.72-.1.92-.3s.29-.52.29-.96v-.96c0-.44-.1-.76-.29-.96-.2-.2-.5-.3-.92-.3h-.92v3.48h.92Z" style="fill: #fff;"/>
    <path d="m24.02,83.75h-1.53v-10.94h1.53v10.94Z" style="fill: #fff;"/>
    <path d="m26.1,82.97c-.39-.6-.59-1.48-.59-2.66v-4.07c0-1.19.24-2.08.73-2.68s1.21-.9,2.17-.9c1.82,0,2.73,1.04,2.73,3.13v.51l-1.48.3v-.57c0-.55-.05-.99-.14-1.31s-.23-.55-.41-.68-.41-.2-.68-.2c-.46,0-.8.18-1.03.55s-.34.93-.34,1.68v4.34c0,.77.1,1.34.3,1.72s.51.56.93.56.77-.3,1.03-.91c.25-.61.41-1.55.48-2.84h-1.57v-1.16h2.99v5.98h-1.31c-.01-.25,0-.54.05-.87.05-.33.14-.79.27-1.37l-.16-.04c-.23.84-.52,1.45-.86,1.83-.34.38-.79.57-1.35.57-.78,0-1.36-.3-1.75-.89Z" style="fill: #fff;"/>
  </g>
  <rect x="4.25" y="233.59" width="34.7" height="34.7" rx="7.09" ry="7.09" style="fill: #fff;"/>
  <g>
    <path d="m17.57,282.34h-4.41v-10.94h4.29v1.25h-2.76v3.33h2.5v1.15h-2.5v3.96h2.88v1.25Z" style="fill: #fff;"/>
    <path d="m19.39,281.58c-.5-.61-.74-1.51-.74-2.7v-4.02c0-1.2.25-2.1.74-2.71.49-.61,1.23-.91,2.2-.91s1.72.3,2.21.91.74,1.51.74,2.71v4.02c0,1.19-.25,2.09-.74,2.7s-1.23.91-2.21.91-1.71-.3-2.2-.91Zm3.27-.83c.23-.36.34-.91.34-1.65v-4.43c0-.75-.12-1.31-.35-1.68-.23-.37-.58-.55-1.06-.55s-.82.18-1.05.55c-.23.37-.35.93-.35,1.68v4.43c0,.74.12,1.29.35,1.65.23.36.58.54,1.06.54s.83-.18,1.05-.54Z" style="fill: #fff;"/>
    <path d="m26.88,282.34h-1.48l2.09-10.94h1.91l2.12,10.94h-1.6l-.36-2.04h-2.3l-.37,2.04Zm.57-3.16h1.9l-.5-2.98c-.16-.91-.28-1.88-.38-2.91h-.16c-.09,1.01-.21,1.98-.37,2.91l-.5,2.98Z" style="fill: #fff;"/>
  </g>
  <rect x="0" y="350.91" width="86.28" height="13.34" style="fill: #fff;"/>
  <rect x="46.74" y="233.59" width="34.7" height="34.7" rx="7.09" ry="7.09" style="fill: #fff;"/>
  <g>
    <path d="m59.78,282.34h-4.41v-10.94h4.29v1.25h-2.76v3.33h2.5v1.15h-2.5v3.96h2.88v1.25Z" style="fill: #fff;"/>
    <path d="m61.6,281.58c-.5-.61-.74-1.51-.74-2.7v-4.02c0-1.2.25-2.1.74-2.71.49-.61,1.23-.91,2.2-.91s1.72.3,2.21.91.74,1.51.74,2.71v4.02c0,1.19-.25,2.09-.74,2.7s-1.23.91-2.21.91-1.71-.3-2.2-.91Zm3.27-.83c.23-.36.34-.91.34-1.65v-4.43c0-.75-.12-1.31-.35-1.68-.23-.37-.58-.55-1.06-.55s-.82.18-1.05.55c-.23.37-.35.93-.35,1.68v4.43c0,.74.12,1.29.35,1.65.23.36.58.54,1.06.54s.83-.18,1.05-.54Z" style="fill: #fff;"/>
    <path d="m68.1,278.89v-4.05c0-1.19.24-2.08.71-2.69s1.18-.91,2.12-.91,1.59.28,2.06.84.71,1.44.71,2.63v.56l-1.48.3v-.62c0-.64-.05-1.15-.14-1.52s-.23-.63-.41-.79-.42-.23-.7-.23c-.45,0-.78.18-1,.54s-.32.91-.32,1.66v4.46c0,.75.11,1.3.33,1.66s.55.54,1,.54c.29,0,.52-.08.71-.24s.33-.43.43-.81.15-.91.15-1.57v-.7l1.5.35v.64c0,1.21-.25,2.1-.73,2.67s-1.18.85-2.09.85c-1.9,0-2.84-1.2-2.84-3.6Z" style="fill: #fff;"/>
  </g>
  <rect x="25.85" y="288.31" width="34.7" height="34.7" rx="7.09" ry="7.09" style="fill: #fff;"/>
  <g>
    <path d="m39,337.06h-4.41v-10.94h4.29v1.25h-2.76v3.33h2.5v1.15h-2.5v3.96h2.88v1.25Z" style="fill: #fff;"/>
    <path d="m40.35,337.06v-10.94h1.88l1.94,6.36c.17.54.34,1.28.52,2.21l.16-.02c-.12-1.34-.18-2.46-.18-3.36v-5.2h1.48v10.94h-1.84l-1.95-6.32c-.1-.34-.2-.68-.28-1.03-.08-.35-.17-.78-.27-1.28l-.16.02c.05.55.09,1.14.12,1.76s.05,1.17.05,1.65v5.2s-1.48,0-1.48,0Z" style="fill: #fff;"/>
    <path d="m49.39,337.06l-2.09-10.94h1.61l.99,5.86c.08.51.15.99.21,1.44s.11.97.15,1.57h.16c.05-.62.1-1.15.16-1.6s.12-.92.2-1.41l.99-5.86h1.52l-2.06,10.94h-1.83Z" style="fill: #fff;"/>
  </g>
  <circle cx="39.92" cy="356.39" r="1.69" style="fill: none;"/>
  <polygon points="48.7 357.75 48.7 357.75 48.7 357.75 48.7 357.75" style="fill: #231f20;"/>
  <circle cx="39.92" cy="356.39" r="1.69" style="fill: none;"/>
  <path d="m39.92,359.1c-.64,0-1.23-.22-1.69-.59v.17h0c.04,1.18,1.01,2.12,2.2,2.12s2.15-.94,2.2-2.12v-2.28c0,1.5-1.21,2.71-2.71,2.71Z" style="fill: none;"/>
  <path d="m46.35,357.41c-.93,0-1.69.76-1.69,1.69s.76,1.69,1.69,1.69,1.69-.76,1.69-1.69-.76-1.69-1.69-1.69Z" style="fill: none;"/>
  <polygon points="48.7 357.75 48.7 357.75 48.7 357.75 48.7 357.75" style="fill: none;"/>
  <path d="m52.85,356.25c-.72,0-1.38.25-1.9.67v-.67c0-1.05.85-1.9,1.9-1.9s1.9.85,1.9,1.9h1.14c0-1.68-1.36-3.05-3.05-3.05-.72,0-1.38.25-1.9.67-.7.56-1.14,1.42-1.14,2.38h0c-.1-1.91-1.68-3.43-3.61-3.43s-3.51,1.52-3.61,3.43h0v2.57c-.05,1.32-1.14,2.38-2.47,2.38s-2.42-1.06-2.47-2.38h0v-.19c.52.42,1.18.67,1.9.67,1.68,0,3.05-1.36,3.05-3.05s-1.36-3.05-3.05-3.05-3.05,1.36-3.05,3.05v-3.05h-1.14v3.05c0,1.05-.85,1.9-1.9,1.9s-1.9-.85-1.9-1.9v-3.05h-1.14v3.05c0,1.68,1.36,3.05,3.05,3.05.72,0,1.38-.25,1.9-.67v.67c0,1.05-.85,1.9-1.9,1.9s-1.9-.85-1.9-1.9h-1.14c0,1.68,1.36,3.05,3.05,3.05.72,0,1.38-.25,1.9-.67.7-.56,1.14-1.42,1.14-2.38,0-.1,0-.2.02-.31.14,1.87,1.7,3.35,3.6,3.35s3.51-1.52,3.61-3.43h0v-2.57c.05-1.32,1.14-2.38,2.47-2.38s2.42,1.06,2.47,2.38h0v.57c-.52-.42-1.18-.67-1.9-.67-1.68,0-3.05,1.36-3.05,3.05s1.36,3.05,3.05,3.05,3.05-1.36,3.05-3.05v3.05h1.14v-3.05c0-1.05.85-1.9,1.9-1.9s1.9.85,1.9,1.9v3.05h1.14v-3.05c0-1.68-1.36-3.05-3.05-3.05Zm-13.33-1.9c1.05,0,1.9.85,1.9,1.9s-.85,1.9-1.9,1.9-1.9-.85-1.9-1.9.85-1.9,1.9-1.9Zm7.23,6.85c-1.05,0-1.9-.85-1.9-1.9s.85-1.9,1.9-1.9,1.9.85,1.9,1.9-.85,1.9-1.9,1.9Zm2.64-3.43s0,0,0,0h0s0,0,0,0Z" style="fill: #231f20;"/>
  <g>
    <path d="m57.47,83.73h-4.1v-10.9h1.53v9.65h2.58v1.25Z" style="fill: #fff;"/>
    <path d="m58.69,82.98c-.49-.6-.74-1.5-.74-2.69v-4.01c0-1.19.25-2.09.74-2.7s1.22-.91,2.2-.91,1.71.3,2.2.91.74,1.5.74,2.7v4.01c0,1.19-.25,2.09-.74,2.69s-1.23.91-2.2.91-1.7-.3-2.2-.91Zm3.25-.83c.23-.36.34-.91.34-1.64v-4.41c0-.75-.12-1.3-.35-1.67s-.58-.55-1.05-.55-.82.18-1.05.55-.35.92-.35,1.67v4.41c0,.74.12,1.28.35,1.64s.58.54,1.05.54.82-.18,1.05-.54Z" style="fill: #fff;"/>
    <path d="m65.51,82.98c-.49-.6-.74-1.5-.74-2.69v-4.01c0-1.19.25-2.09.74-2.7s1.22-.91,2.2-.91,1.71.3,2.2.91.74,1.5.74,2.7v4.01c0,1.19-.25,2.09-.74,2.69s-1.23.91-2.2.91-1.7-.3-2.2-.91Zm3.25-.83c.23-.36.34-.91.34-1.64v-4.41c0-.75-.12-1.3-.35-1.67s-.58-.55-1.05-.55-.82.18-1.05.55-.35.92-.35,1.67v4.41c0,.74.12,1.28.35,1.64s.58.54,1.05.54.82-.18,1.05-.54Z" style="fill: #fff;"/>
    <path d="m71.73,83.73v-10.9h2.56c1.72,0,2.58.88,2.58,2.64v1.56c0,.87-.22,1.52-.65,1.96s-1.08.66-1.93.66h-1.04v4.08h-1.53Zm2.42-5.27c.42,0,.72-.11.92-.32s.3-.55.3-1.02v-1.74c0-.47-.1-.82-.3-1.04s-.5-.33-.92-.33h-.9v4.44h.9Z" style="fill: #fff;"/>
  </g>
</svg>