<?xml version="1.0" encoding="UTF-8"?>
<svg id="design" xmlns="http://www.w3.org/2000/svg" width="15.24mm" height="128.5mm" viewBox="0 0 43.2 364.25">
  <defs>
    <linearGradient id="linear-gradient" x1="21.6" y1="328.3" x2="21.6" y2="23.92" gradientUnits="userSpaceOnUse">
      <stop offset="0" stop-color="#43aee3"/>
      <stop offset="1" stop-color="#8a52a1"/>
    </linearGradient>
  </defs>
  <rect id="BG" width="43.2" height="366.7" style="fill: #231f20;"/>
  <rect x="15.85" y="23.92" width="11.51" height="304.38" style="fill: url(#linear-gradient);"/>
  <rect x="3.28" y="310.95" width="34.7" height="34.7" rx="7.09" ry="7.09" style="fill: #000111;"/>
  <rect x="0" y="350.91" width="43.2" height="15.79" style="fill: #fff;"/>
  <circle cx="39.92" cy="356.39" r="1.69" style="fill: none;"/>
  <circle cx="39.92" cy="356.39" r="1.69" style="fill: none;"/>
  <path d="m39.92,359.1c-.64,0-1.23-.22-1.69-.59v.17h0c.04,1.18,1.01,2.12,2.2,2.12s2.15-.94,2.2-2.12v-2.28c0,1.5-1.21,2.71-2.71,2.71Z" style="fill: none;"/>
  <path d="m31.31,356.25c-.72,0-1.38.25-1.9.67v-.67c0-1.05.85-1.9,1.9-1.9s1.9.85,1.9,1.9h1.14c0-1.68-1.36-3.05-3.05-3.05-.72,0-1.38.25-1.9.67-.7.56-1.14,1.42-1.14,2.38h0c-.1-1.91-1.68-3.43-3.61-3.43s-3.51,1.52-3.61,3.43h0v2.57c-.05,1.32-1.14,2.38-2.47,2.38s-2.42-1.06-2.47-2.38h0v-.19c.52.42,1.18.67,1.9.67,1.68,0,3.05-1.36,3.05-3.05s-1.36-3.05-3.05-3.05-3.05,1.36-3.05,3.05v-3.05h-1.14v3.05c0,1.05-.85,1.9-1.9,1.9s-1.9-.85-1.9-1.9v-3.05h-1.14v3.05c0,1.68,1.36,3.05,3.05,3.05.72,0,1.38-.25,1.9-.67v.67c0,1.05-.85,1.9-1.9,1.9s-1.9-.85-1.9-1.9h-1.14c0,1.68,1.36,3.05,3.05,3.05.72,0,1.38-.25,1.9-.67.7-.56,1.14-1.42,1.14-2.38,0-.1,0-.2.02-.31.14,1.87,1.7,3.35,3.6,3.35s3.51-1.52,3.61-3.43h0v-2.57c.05-1.32,1.14-2.38,2.47-2.38s2.42,1.06,2.47,2.38h0v.57c-.52-.42-1.18-.67-1.9-.67-1.68,0-3.05,1.36-3.05,3.05s1.36,3.05,3.05,3.05,3.05-1.36,3.05-3.05v3.05h1.14v-3.05c0-1.05.85-1.9,1.9-1.9s1.9.85,1.9,1.9v3.05h1.14v-3.05c0-1.68-1.36-3.05-3.05-3.05Zm-13.33-1.9c1.05,0,1.9.85,1.9,1.9s-.85,1.9-1.9,1.9-1.9-.85-1.9-1.9.85-1.9,1.9-1.9Zm7.23,6.85c-1.05,0-1.9-.85-1.9-1.9s.85-1.9,1.9-1.9,1.9.85,1.9,1.9-.85,1.9-1.9,1.9Zm2.64-3.43s0,0,0,0h0s0,0,0,0Z" style="fill: #231f20;"/>
  <rect x="3.28" y="6.58" width="34.7" height="34.7" rx="7.09" ry="7.09" style="fill: #000111;"/>
  <rect x="3.28" y="137.02" width="34.7" height="34.7" rx="7.09" ry="7.09" style="fill: #fff;"/>
  <rect x="3.28" y="180.51" width="34.7" height="34.7" rx="7.09" ry="7.09" style="fill: #fff;"/>
  <rect x="3.28" y="93.54" width="34.7" height="34.7" rx="7.09" ry="7.09" style="fill: #fff;"/>
  <rect x="3.28" y="50.06" width="34.7" height="34.7" rx="7.09" ry="7.09" style="fill: #fff;"/>
  <rect x="3.28" y="223.99" width="34.7" height="34.7" rx="7.09" ry="7.09" style="fill: #fff;"/>
  <rect x="3.28" y="267.47" width="34.7" height="34.7" rx="7.09" ry="7.09" style="fill: #fff;"/>
</svg>