<?xml version="1.0" encoding="UTF-8"?>
<svg id="DESIGN" xmlns="http://www.w3.org/2000/svg" width="213.36mm" height="128.5mm" xmlns:xlink="http://www.w3.org/1999/xlink" viewBox="0 0 604.8 364.25">
  <defs>
    <linearGradient id="New_Gradient_Swatch_1" data-name="New Gradient Swatch 1" x1="29.45" y1="284.54" x2="598.75" y2="284.54" gradientUnits="userSpaceOnUse">
      <stop offset="0" stop-color="#43aee3"/>
      <stop offset="1" stop-color="#8a52a1"/>
    </linearGradient>
    <linearGradient id="New_Gradient_Swatch_1-2" data-name="New Gradient Swatch 1" x1="29.45" y1="213.1" x2="598.75" y2="213.1" xlink:href="#New_Gradient_Swatch_1"/>
    <linearGradient id="New_Gradient_Swatch_1-3" data-name="New Gradient Swatch 1" x1="29.74" y1="141.38" x2="599.03" y2="141.38" xlink:href="#New_Gradient_Swatch_1"/>
    <linearGradient id="New_Gradient_Swatch_1-4" data-name="New Gradient Swatch 1" x1="29.51" y1="69.38" x2="598.81" y2="69.38" xlink:href="#New_Gradient_Swatch_1"/>
  </defs>
  <rect width="604.8" height="364.25" style="fill: #231f20; stroke-width: 0px;"/>
  <path d="M589.24,257.32H134.1c-5.25,0-9.51,4.26-9.51,9.51v10.32H29.45v3.15h95.13v21.94c0,5.25,4.26,9.51,9.51,9.51h455.14c5.25,0,9.51-4.26,9.51-9.51v-35.4c0-5.25-4.26-9.51-9.51-9.51Z" style="fill: url(#New_Gradient_Swatch_1); stroke-width: 0px;"/>
  <path d="M589.24,185.89H134.1c-5.25,0-9.51,4.26-9.51,9.51v10.32H29.45v3.15h95.13v21.94c0,5.25,4.26,9.51,9.51,9.51h455.14c5.25,0,9.51-4.26,9.51-9.51v-35.4c0-5.25-4.26-9.51-9.51-9.51Z" style="fill: url(#New_Gradient_Swatch_1-2); stroke-width: 0px;"/>
  <path d="M589.52,114.17H134.38c-5.25,0-9.51,4.26-9.51,9.51v10.32H29.74v3.15h95.13v21.94c0,5.25,4.26,9.51,9.51,9.51h455.14c5.25,0,9.51-4.26,9.51-9.51v-35.4c0-5.25-4.26-9.51-9.51-9.51Z" style="fill: url(#New_Gradient_Swatch_1-3); stroke-width: 0px;"/>
  <path d="M589.3,42.17H134.15c-5.25,0-9.51,4.26-9.51,9.51v10.32H29.51v3.15h95.13v21.94c0,5.25,4.26,9.51,9.51,9.51h455.14c5.25,0,9.51-4.26,9.51-9.51v-35.4c0-5.25-4.26-9.51-9.51-9.51Z" style="fill: url(#New_Gradient_Swatch_1-4); stroke-width: 0px;"/>
  <g>
    <rect x="-12.85" y="350.91" width="630.5" height="13.34" style="fill: #fff; stroke-width: 0px;"/>
    <g>
      <path d="M306.46,355.58c1,0,2.01,0,3.01,0,.11,0,.22-.01.33-.03.17-.03.22-.13.13-.27-.05-.08-.11-.16-.18-.23-.49-.5-.99-.99-1.48-1.48-.09-.09-.18-.19-.26-.29-.04-.05-.08-.1-.1-.16-.06-.16,0-.3.17-.35.09-.03.18-.04.27-.04,1.2,0,2.39,0,3.59,0,.34,0,.55.18.56.48,0,.08.02.17.02.25,0,.72,0,1.44,0,2.15,0,.54,0,1.07,0,1.61,0,.77-.11,1.52-.38,2.24-.37.99-.96,1.8-1.87,2.34-.55.33-1.14.51-1.77.59-.77.09-1.55.08-2.31-.12-1.25-.32-2.16-1.07-2.75-2.21-.43-.84-.64-1.74-.63-2.69,0-.39,0-.78,0-1.16,0-.06,0-.13.01-.19.03-.23.17-.38.4-.42.09-.02.19-.02.29-.02.99,0,1.98,0,2.97,0ZM307.64,357.69c-.92,0-1.84,0-2.75,0-.33,0-.45.14-.41.48,0,.03,0,.05.01.08.07.38.2.73.38,1.07.39.7.96,1.17,1.74,1.38.47.12.94.16,1.42.12.49-.05.95-.17,1.37-.43.82-.5,1.22-1.28,1.39-2.18.07-.38-.06-.51-.45-.51-.9,0-1.81,0-2.71,0Z" style="fill: #231f20; stroke-width: 0px;"/>
      <path d="M298.31,359.59c-1,0-1.99,0-2.99,0-.11,0-.22,0-.33.03-.17.04-.2.12-.11.27.05.08.12.15.18.22.49.5.99.99,1.48,1.48.09.09.17.18.25.27.05.06.09.13.12.2.05.14,0,.26-.14.31-.1.03-.2.05-.3.05-1.2,0-2.39,0-3.59,0-.37,0-.53-.15-.56-.52,0-.07,0-.14,0-.21,0-1.32,0-2.64,0-3.96,0-1.05.26-2.03.8-2.93.59-.97,1.44-1.61,2.54-1.9.6-.16,1.21-.21,1.82-.18.84.04,1.64.22,2.36.67.66.41,1.16.96,1.52,1.64.38.71.6,1.47.64,2.27.03.58.04,1.16.02,1.74-.01.38-.19.49-.54.53-.07,0-.14,0-.21,0-.98,0-1.97,0-2.95,0ZM297.14,357.49c.89,0,1.78,0,2.68,0,.06,0,.12,0,.17,0,.27-.03.38-.18.34-.45-.07-.42-.2-.81-.4-1.18-.35-.64-.87-1.08-1.56-1.32-.64-.21-1.29-.23-1.95-.12-.36.06-.7.18-1.01.37-.84.52-1.25,1.32-1.41,2.26-.05.28.08.43.37.44.05,0,.09,0,.14,0,.88,0,1.76,0,2.64,0Z" style="fill: #231f20; stroke-width: 0px;"/>
      <path d="M318.14,352.72c1.39,0,2.78,0,4.17,0,.09,0,.18.01.27.03.22.04.33.18.37.39.01.08.02.15.02.23,0,.26,0,.52,0,.78,0,.05,0,.1,0,.15-.03.35-.19.47-.52.5-.05,0-.1,0-.16,0-1.18,0-2.37,0-3.55,0-.06,0-.12,0-.17,0-.28,0-.51.12-.71.31-.8.8-1.59,1.59-2.39,2.39-.44.44-.86.89-1.3,1.33-.1.11-.22.2-.33.3-.04.04-.09.07-.15.09-.18.08-.34,0-.38-.19-.03-.15-.05-.31-.05-.46,0-1.7,0-3.4,0-5.1,0-.08.02-.17.02-.25.01-.34.21-.49.56-.51.05,0,.09,0,.14,0,1.39,0,2.78,0,4.17,0Z" style="fill: #231f20; stroke-width: 0px;"/>
      <path d="M286.69,362.44c-1.4,0-2.81,0-4.21,0-.47,0-.64-.17-.64-.64,0-.28,0-.56,0-.83,0-.06,0-.13.02-.19.06-.26.18-.38.45-.41.06,0,.13,0,.19,0,1.13,0,2.26,0,3.4,0,.18,0,.36-.01.54-.03.23-.02.39-.16.54-.31.33-.32.65-.65.98-.97.43-.43.87-.87,1.3-1.3.46-.47.92-.95,1.38-1.42.09-.1.2-.18.3-.27.02-.02.04-.03.06-.05.27-.2.49-.11.53.23.02.13.02.27.02.41,0,1.67,0,3.34,0,5.01,0,.15-.01.3-.04.44-.04.2-.18.31-.37.34-.08.01-.17.01-.25.01-1.4,0-2.79,0-4.19,0Z" style="fill: #231f20; stroke-width: 0px;"/>
      <path d="M282.63,352.71c.16.01.28.01.41.03.24.03.37.18.43.41.07.29.14.59.23.88.17.51.45.95.86,1.31.44.38.96.58,1.52.66.5.07,1,.06,1.5-.06.96-.23,1.63-.81,2.02-1.71.13-.3.21-.61.27-.93.09-.46.24-.59.71-.59.19,0,.38,0,.56.03.24.04.35.19.36.43,0,.27-.06.54-.12.8-.17.75-.48,1.43-.93,2.05-.53.73-1.28,1.15-2.12,1.41-.47.15-.96.2-1.45.22-.65.02-1.29-.04-1.91-.24-1.29-.41-2.16-1.28-2.68-2.51-.21-.49-.34-1-.41-1.53-.01-.08-.01-.17,0-.25.02-.19.14-.34.33-.38.14-.03.29-.03.42-.04Z" style="fill: #231f20; stroke-width: 0px;"/>
      <path d="M322.15,362.44c-.08,0-.16,0-.23,0-.35,0-.52-.14-.6-.49-.06-.26-.11-.53-.2-.79-.22-.66-.6-1.21-1.21-1.59-.44-.27-.92-.41-1.43-.44-.54-.04-1.07,0-1.59.17-.69.24-1.2.69-1.55,1.33-.2.36-.32.75-.39,1.15-.02.09-.04.19-.07.28-.07.23-.23.35-.45.36-.23.01-.47.02-.7,0-.28-.02-.41-.18-.42-.46,0-.42.1-.82.23-1.21.22-.7.55-1.34,1.03-1.89.31-.35.69-.61,1.09-.82.58-.3,1.2-.47,1.85-.52.77-.07,1.52-.02,2.26.2,1.06.32,1.86.96,2.42,1.91.37.63.59,1.32.71,2.04.02.11.02.22.02.33,0,.24-.15.4-.39.43-.13.02-.26,0-.39,0,0,0,0,0,0,.01Z" style="fill: #231f20; stroke-width: 0px;"/>
    </g>
  </g>
  <g>
    <path d="M22.9,27.69h-1.57v-5.56h-1.42v-1.28h4.4v1.28h-1.42v5.56Z" style="fill: #fff; stroke-width: 0px;"/>
    <path d="M24.76,27.69v-6.84h2.45c.67,0,1.17.15,1.52.44s.52.72.52,1.29v.22c0,.41-.1.73-.31.98s-.5.4-.88.47v.09c.21.06.37.13.48.22s.21.21.27.36.12.37.17.64l.13.8c.06.38.13.65.19.82s.15.29.24.38v.13h-1.71c-.06-.11-.12-.26-.16-.44s-.08-.45-.13-.81l-.08-.69c-.03-.23-.07-.41-.12-.54s-.12-.21-.21-.27-.21-.08-.37-.08h-.45v2.82h-1.56ZM27.06,23.69c.21,0,.37-.05.47-.15s.15-.26.15-.48v-.33c0-.22-.05-.38-.15-.48s-.26-.15-.47-.15h-.74v1.6h.74Z" style="fill: #fff; stroke-width: 0px;"/>
    <path d="M31.51,27.69h-1.56v-6.84h1.56v6.84Z" style="fill: #fff; stroke-width: 0px;"/>
    <path d="M32.12,24.89v-1.25c0-.98.2-1.71.6-2.19s1.01-.72,1.83-.72c.75,0,1.31.18,1.69.55s.58.94.6,1.72l-1.49.22c0-.32-.04-.58-.1-.76s-.15-.32-.26-.4-.25-.11-.42-.11c-.3,0-.52.11-.66.34s-.21.58-.21,1.06v1.75c0,.48.07.85.2,1.08s.34.36.62.36c.26,0,.46-.12.61-.36s.24-.65.28-1.22h-.99v-1.16h2.47v3.89h-1.34s0-.07,0-.12c0-.15.02-.32.06-.52s.1-.44.19-.73l-.11-.04c-.13.35-.27.63-.42.84s-.33.38-.53.48-.46.16-.74.16c-1.26,0-1.88-.96-1.88-2.88Z" style="fill: #fff; stroke-width: 0px;"/>
  </g>
  <rect x="557.75" y="46.67" width="34.7" height="34.7" rx="7.09" ry="7.09" style="fill: #fff; stroke-width: 0px;"/>
  <rect x="557.75" y="118.39" width="34.7" height="34.7" rx="7.09" ry="7.09" style="fill: #fff; stroke-width: 0px;"/>
  <rect x="557.75" y="190.11" width="34.7" height="34.7" rx="7.09" ry="7.09" style="fill: #fff; stroke-width: 0px;"/>
  <rect x="557.75" y="261.82" width="34.7" height="34.7" rx="7.09" ry="7.09" style="fill: #fff; stroke-width: 0px;"/>
  <g>
    <path d="M52.26,27.61v-6.84h2.45c.67,0,1.17.15,1.52.44s.52.72.52,1.29v.22c0,.41-.1.73-.31.98s-.5.4-.88.47v.09c.21.06.37.13.48.22s.21.21.27.36.12.37.17.64l.13.8c.06.38.13.65.19.82s.15.29.24.38v.13h-1.71c-.06-.11-.12-.26-.16-.44s-.08-.45-.13-.81l-.08-.69c-.03-.23-.07-.41-.12-.54s-.12-.21-.21-.27-.21-.08-.37-.08h-.45v2.82h-1.56ZM54.57,23.61c.21,0,.37-.05.47-.15s.15-.26.15-.48v-.33c0-.22-.05-.38-.15-.48s-.26-.15-.47-.15h-.74v1.6h.74Z" style="fill: #fff; stroke-width: 0px;"/>
    <path d="M58.72,27.61h-1.51l1.6-6.84h2.02l1.64,6.84h-1.66l-.19-.97h-1.72l-.19.97ZM59.14,25.51h1.25l-.33-1.68c-.11-.58-.2-1.11-.24-1.6h-.1c-.04.52-.12,1.05-.23,1.6l-.34,1.68Z" style="fill: #fff; stroke-width: 0px;"/>
    <path d="M62.88,27.61v-6.84h1.75l1.26,3.24c.12.3.25.72.4,1.26h.1c-.07-.81-.11-1.43-.11-1.88v-2.62h1.52v6.84h-1.73l-1.27-3.22c-.13-.34-.27-.79-.4-1.34h-.1c.07.77.11,1.45.11,2.05v2.51h-1.51Z" style="fill: #fff; stroke-width: 0px;"/>
    <path d="M68.39,24.81v-1.25c0-.98.2-1.71.6-2.19s1.01-.72,1.83-.72c.75,0,1.31.18,1.69.55s.58.94.6,1.72l-1.49.22c0-.32-.04-.58-.1-.76s-.15-.32-.26-.4-.25-.11-.42-.11c-.3,0-.52.11-.66.34s-.21.58-.21,1.06v1.75c0,.48.07.85.2,1.08s.34.36.62.36c.26,0,.46-.12.61-.36s.24-.65.28-1.22h-.99v-1.16h2.47v3.89h-1.34s0-.07,0-.12c0-.15.02-.32.06-.52s.1-.44.19-.73l-.11-.04c-.13.35-.27.63-.42.84s-.33.38-.53.48-.46.16-.74.16c-1.26,0-1.88-.96-1.88-2.88Z" style="fill: #fff; stroke-width: 0px;"/>
    <path d="M77.66,27.61h-3.81v-6.84h3.73v1.28h-2.16v1.49h1.98v1.12h-1.98v1.67h2.25v1.28Z" style="fill: #fff; stroke-width: 0px;"/>
  </g>
  <g>
    <path d="M91.6,27.7h-3.57v-6.84h1.56v5.56h2.01v1.28Z" style="fill: #fff; stroke-width: 0px;"/>
    <path d="M95.96,27.7h-3.81v-6.84h3.73v1.28h-2.16v1.49h1.98v1.12h-1.98v1.67h2.25v1.28Z" style="fill: #fff; stroke-width: 0px;"/>
    <path d="M96.52,27.7v-6.84h1.75l1.26,3.24c.12.3.25.72.4,1.26h.1c-.07-.81-.11-1.43-.11-1.88v-2.62h1.52v6.84h-1.73l-1.27-3.22c-.13-.34-.27-.79-.4-1.34h-.1c.07.77.11,1.45.11,2.05v2.51h-1.51Z" style="fill: #fff; stroke-width: 0px;"/>
    <path d="M102.04,24.91v-1.25c0-.98.2-1.71.6-2.19s1.01-.72,1.83-.72c.75,0,1.31.18,1.69.55s.58.94.6,1.72l-1.49.22c0-.32-.04-.58-.1-.76s-.15-.32-.26-.4-.25-.11-.42-.11c-.3,0-.52.11-.66.34s-.21.58-.21,1.06v1.75c0,.48.07.85.2,1.08s.34.36.62.36c.26,0,.46-.12.61-.36s.24-.65.28-1.22h-.99v-1.16h2.47v3.89h-1.34s0-.07,0-.12c0-.15.02-.32.06-.52s.1-.44.19-.73l-.11-.04c-.13.35-.27.63-.42.84s-.33.38-.53.48-.46.16-.74.16c-1.26,0-1.88-.96-1.88-2.88Z" style="fill: #fff; stroke-width: 0px;"/>
    <path d="M110.11,27.7h-1.57v-5.56h-1.42v-1.28h4.4v1.28h-1.42v5.56Z" style="fill: #fff; stroke-width: 0px;"/>
    <path d="M113.54,27.7h-1.56v-6.84h1.56v2.64h1.49v-2.64h1.57v6.84h-1.57v-2.92h-1.49v2.92Z" style="fill: #fff; stroke-width: 0px;"/>
  </g>
  <g>
    <path d="M128.93,27.18c-.38-.37-.58-.94-.59-1.72l1.47-.19c0,.32.05.58.11.76s.16.32.29.41.29.12.49.12c.22,0,.4-.06.52-.17s.18-.26.18-.46c0-.13-.03-.25-.09-.36s-.16-.22-.29-.32-.31-.23-.55-.37l-.68-.39c-.28-.16-.51-.32-.7-.48s-.34-.36-.46-.61-.18-.53-.18-.87c0-.39.09-.73.26-1.01s.42-.5.74-.65.71-.23,1.15-.23c.73,0,1.28.18,1.64.53s.54.9.55,1.63l-1.38.16c0-.42-.07-.71-.21-.89s-.34-.27-.63-.27c-.2,0-.35.05-.47.15s-.18.24-.18.4c0,.11.02.22.07.31s.14.19.26.29.31.22.55.35l.69.39c.3.17.55.33.74.49s.36.35.49.61.2.56.2.94c0,.42-.09.77-.28,1.07s-.45.53-.79.69-.76.24-1.24.24c-.76,0-1.32-.19-1.7-.56Z" style="fill: #fff; stroke-width: 0px;"/>
    <path d="M137.32,27.61h-3.81v-6.84h3.73v1.28h-2.16v1.49h1.98v1.12h-1.98v1.67h2.25v1.28Z" style="fill: #fff; stroke-width: 0px;"/>
    <path d="M142.01,21.38c.41.49.61,1.22.61,2.2v1.24c0,.9-.17,1.59-.52,2.08s-.87.76-1.56.83c0,.12.04.22.13.28s.23.1.42.11l.79.04-.23,1.21c-.67-.03-1.17-.15-1.49-.36s-.48-.53-.48-.93c0-.12.01-.24.03-.36-.67-.08-1.18-.36-1.51-.84s-.5-1.17-.5-2.05v-1.24c0-.98.2-1.72.61-2.2s1.03-.73,1.85-.73,1.44.24,1.85.73ZM141.04,23.27c0-.47-.07-.81-.22-1.04s-.37-.34-.66-.34-.52.11-.67.34-.22.57-.22,1.04v1.92c0,.44.07.77.22.99s.37.33.67.33.52-.11.66-.33.22-.55.22-.99v-1.92Z" style="fill: #fff; stroke-width: 0px;"/>
    <path d="M143.8,27.24c-.4-.33-.59-.82-.59-1.46v-5h1.57v4.91c0,.28.06.49.19.63s.31.21.56.21.44-.07.56-.22.19-.36.19-.63v-4.91h1.57v5c0,.64-.2,1.13-.6,1.46s-.97.5-1.73.5-1.33-.17-1.73-.5Z" style="fill: #fff; stroke-width: 0px;"/>
    <path d="M152.38,27.61h-3.81v-6.84h3.73v1.28h-2.16v1.49h1.98v1.12h-1.98v1.67h2.25v1.28Z" style="fill: #fff; stroke-width: 0px;"/>
    <path d="M152.94,27.61v-6.84h1.75l1.26,3.24c.12.3.25.72.4,1.26h.1c-.07-.81-.11-1.43-.11-1.88v-2.62h1.52v6.84h-1.73l-1.27-3.22c-.13-.34-.27-.79-.4-1.34h-.1c.07.77.11,1.45.11,2.05v2.51h-1.51Z" style="fill: #fff; stroke-width: 0px;"/>
    <path d="M159.04,27.02c-.39-.48-.58-1.21-.58-2.2v-1.25c0-.98.2-1.71.59-2.19s.98-.73,1.78-.73,1.35.21,1.74.64.59,1.1.6,2.01l-1.49.23c0-.41-.03-.74-.09-.98s-.15-.41-.27-.52-.27-.15-.46-.15c-.28,0-.48.11-.62.33s-.2.56-.2,1.01v1.95c0,.45.07.79.2,1.01s.34.33.62.33c.18,0,.32-.05.44-.16s.21-.29.28-.55.1-.61.1-1.04l1.52.33c-.02.92-.23,1.59-.63,2.02s-.98.64-1.74.64c-.8,0-1.4-.24-1.79-.72Z" style="fill: #fff; stroke-width: 0px;"/>
    <path d="M167.59,27.61h-3.81v-6.84h3.73v1.28h-2.16v1.49h1.98v1.12h-1.98v1.67h2.25v1.28Z" style="fill: #fff; stroke-width: 0px;"/>
  </g>
  <g>
    <path d="M562.47,27.21c-.39-.48-.58-1.21-.58-2.2v-1.25c0-.98.2-1.71.59-2.19s.99-.73,1.78-.73,1.35.21,1.74.64.59,1.1.6,2.01l-1.49.23c0-.41-.03-.74-.09-.98-.06-.24-.15-.41-.27-.52s-.27-.15-.46-.15c-.28,0-.48.11-.62.33-.13.22-.2.56-.2,1.01v1.95c0,.45.07.79.2,1.01.13.22.34.33.62.33.18,0,.32-.05.44-.16.12-.11.21-.29.28-.55.07-.26.1-.61.1-1.04l1.52.33c-.02.92-.23,1.59-.63,2.02-.4.43-.98.64-1.74.64-.8,0-1.4-.24-1.79-.72Z" style="fill: #fff; stroke-width: 0px;"/>
    <path d="M568.37,27.8l-1.63-6.84h1.67l.66,3.35c.06.29.1.56.14.82.04.26.07.56.09.89h.11c.03-.35.06-.65.1-.91s.08-.53.13-.81l.65-3.35h1.55l-1.58,6.84h-1.89Z" style="fill: #fff; stroke-width: 0px;"/>
    <path d="M573.93,27.21c-.41-.48-.61-1.22-.61-2.2v-1.24c0-.98.2-1.72.61-2.2.41-.48,1.03-.73,1.85-.73s1.44.24,1.85.73c.41.49.61,1.22.61,2.2v1.24c0,.98-.2,1.71-.61,2.2-.41.48-1.03.73-1.85.73s-1.44-.24-1.85-.73ZM576.44,26.37c.14-.22.22-.55.22-.99v-1.92c0-.47-.07-.81-.22-1.04-.15-.23-.37-.34-.66-.34s-.52.11-.67.34c-.15.23-.22.57-.22,1.04v1.92c0,.44.07.77.22.99.14.22.37.33.67.33s.52-.11.66-.33Z" style="fill: #fff; stroke-width: 0px;"/>
    <path d="M579.43,27.43c-.4-.33-.59-.82-.59-1.46v-5h1.57v4.91c0,.28.06.49.19.63s.31.21.56.21.44-.07.56-.22c.13-.15.19-.36.19-.63v-4.91h1.57v5c0,.64-.2,1.13-.6,1.46-.4.33-.97.5-1.73.5s-1.33-.17-1.73-.5Z" style="fill: #fff; stroke-width: 0px;"/>
    <path d="M586.88,27.8h-1.57v-5.56h-1.42v-1.28h4.4v1.28h-1.42v5.56Z" style="fill: #fff; stroke-width: 0px;"/>
  </g>
  <g>
    <path d="M252.84,330.57s-.08,0-.12-.01c-.13-2.13-.18-3.83-.22-4.8-.04-.98-.08-1.6-.13-1.82-.05-.23-.14-.34-.27-.34-.08,0-.17,0-.25,0-2.22,5.31-4.45,9.51-6.67,12.59.17.35.34.67.52.98-.02.03-.04.06-.07.08-2.2-.26-4.39-.56-6.59-.93.02-.03.05-.07.07-.1.61-.25,1.22-.49,1.82-.74,2.39-3.35,4.78-7.33,7.17-11.94-.07,0-.14,0-.21,0-.15,0-.35.09-.59.26-.24.17-.87.74-1.92,1.59-1.05.85-2.47,1.92-4.29,3.1-.04-.01-.08-.02-.12-.03,1.22-1.78,2.44-3.56,3.65-5.35,3.73.01,7.45,0,11.18-.02-.98,2.83-1.97,5.33-2.95,7.49Z" style="fill: #fff; stroke-width: 0px;"/>
    <path d="M269.15,322.92c-.01.07-.03.14-.04.2-.47.64-.95,1.26-1.43,1.86-1.4,5.87-2.81,10.05-4.21,12.53.24.26.47.49.72.71-.01.02-.03.05-.04.07-2.2-.01-4.39-.06-6.59-.14.02-.02.03-.05.05-.07.54-.2,1.08-.42,1.62-.66.72-1.15,1.45-2.66,2.17-4.52-1.01-.03-2.01-.08-3.02-.14-.78,1.85-1.55,3.35-2.33,4.52.2.28.4.53.61.77-.02.02-.04.05-.05.07-2.19-.1-4.38-.24-6.57-.43.02-.03.04-.05.06-.08.56-.21,1.12-.42,1.68-.65,1.82-2.6,3.65-6.6,5.47-12.01-.15-.56-.29-1.12-.42-1.69.02-.06.04-.12.06-.18,1.9-.01,3.81-.03,5.71-.06-.02.07-.04.13-.05.2-.49.62-.99,1.21-1.49,1.79-.84,2.85-1.68,5.3-2.52,7.35,1,.06,2.01.11,3.01.14.78-2.07,1.56-4.57,2.35-7.48-.18-.59-.35-1.19-.52-1.81.02-.07.03-.13.05-.2,1.91-.02,3.82-.05,5.73-.08Z" style="fill: #fff; stroke-width: 0px;"/>
    <path d="M279.16,333.03c-.45,2.01-.91,3.65-1.36,4.94-4.09.2-8.19.32-12.28.33.01-.02.03-.05.04-.07.52-.2,1.04-.43,1.55-.67,1.29-2.53,2.58-6.78,3.87-12.76-.23-.55-.45-1.11-.68-1.69.01-.07.03-.14.04-.2,3.52-.06,7.04-.13,10.56-.2-.46,3-.91,5.64-1.37,7.92-.04,0-.08,0-.12.01-.24-.67-.47-1.37-.7-2.12-.41-1.43-.72-2.56-.94-3.22-.22-.66-.52-1.16-.89-1.45-.37-.3-.93-.44-1.69-.43-.06,0-.13,0-.19,0-.63,3.38-1.25,6.25-1.88,8.63.07,0,.14,0,.21-.01.41-.02.79-.12,1.14-.28.35-.17.76-.5,1.21-1.01.45-.51.99-1.28,1.62-2.37.04,0,.08,0,.12,0-.52,2.65-1.05,4.87-1.57,6.69-.04,0-.08,0-.13,0-.35-.96-.69-1.71-1.06-2.09-.37-.38-.84-.57-1.44-.54-.07,0-.14,0-.21.01-.64,2.37-1.28,4.22-1.91,5.56.12,0,.23,0,.35-.01.86-.03,1.57-.11,2.1-.26.54-.15,1.06-.39,1.56-.75.5-.36,1.28-1,2.29-2.09.13-.14.25-.28.38-.42.41-.45.82-.92,1.23-1.41.04,0,.08,0,.13-.01Z" style="fill: #fff; stroke-width: 0px;"/>
    <path d="M293.59,329.11c1,.54,1.75,1.07,2.22,1.63.47.55.69,1.25.64,2.09-.05.75-.3,1.48-.77,2.17-.47.69-1.15,1.26-2.04,1.71-.89.45-1.96.69-3.18.78-.61.04-1.17.05-1.7.01-.53-.04-1.19-.09-1.98-.17-.18-.02-.49-.05-.93-.08-.43-.04-.83-.06-1.18-.08.23-1.63.47-3.57.72-5.83.05-.01.1-.03.15-.04.5,1.54,1.24,2.58,2.22,3.3.98.72,1.99,1.17,3,1.41,1.01.23,1.87.32,2.57.25.45-.04.78-.14.99-.3.21-.16.32-.35.34-.57.03-.34-.17-.63-.58-.88-.41-.25-1.1-.58-2.05-1-.3-.13-.6-.27-.9-.4-.76-.37-1.51-.75-2.25-1.15-.63-.32-1.13-.66-1.51-.99-.38-.34-.67-.78-.86-1.33-.19-.55-.22-1.24-.11-2.08.24-1.74.87-3.17,1.86-4.07.99-.91,2.21-1.36,3.67-1.38.62-.01,1.2.08,1.72.26.52.18.96.42,1.33.71.43-.34.86-.67,1.29-.99.03,0,.06,0,.1,0-.13,2.28-.27,4.47-.4,6.58-.04,0-.08.01-.12.02-1.03-1.49-2.12-2.75-3.27-3.75-1.16-1-2.2-1.58-3.17-1.53-.31.01-.56.12-.75.32-.19.2-.3.46-.34.79-.04.36.03.69.2,1,.18.31.45.6.81.88.36.28,1.02.77,2,1.38.75.48,1.5.93,2.27,1.37Z" style="fill: #fff; stroke-width: 0px;"/>
    <path d="M309.52,329.09c.13,1.96.27,4.11.4,6.43-4.09.33-8.19.69-12.28,1.04,0-.04,0-.08,0-.12.41-.38.82-.77,1.23-1.17.13-3.83.27-7.75.4-11.76-.34-.35-.67-.72-1-1.09,0-.04,0-.09,0-.13,3.52-.09,7.04-.18,10.56-.27.13,1.47.26,3.12.4,4.95-.04,0-.08.01-.12.02-.42-.51-.83-1.01-1.24-1.51-.76-.94-1.3-1.6-1.66-1.98-.36-.38-.76-.64-1.19-.8-.43-.16-1.02-.23-1.78-.2-.06,0-.13,0-.19,0,.01,1.98.02,4.03.03,6.14.07,0,.14-.02.21-.03.41-.06.77-.17,1.09-.35.31-.17.63-.49.96-.93.33-.44.69-1.08,1.07-1.87.04,0,.08,0,.12-.01.08,1.84.17,3.82.25,5.93-.04,0-.08.01-.13.02-.68-1.08-1.25-1.75-1.74-2.08-.49-.32-1.02-.44-1.61-.36-.07,0-.14.02-.21.03.01,2.16.02,4.39.03,6.69.12-.01.23-.02.35-.03.86-.08,1.54-.25,2.01-.52.48-.26.9-.67,1.26-1.22.36-.55.9-1.5,1.57-2.8.08-.16.17-.33.25-.49.28-.51.55-1.02.82-1.52.04,0,.08-.01.12-.02Z" style="fill: #fff; stroke-width: 0px;"/>
    <path d="M323.02,327.48c.4,1.95.79,4.3,1.19,7.05-4.09.22-8.19.51-12.28.83,0-.05,0-.1-.01-.15.36-.47.73-.94,1.08-1.4-.38-4.59-.76-8.27-1.14-11.03-.38-.24-.77-.48-1.14-.72,0-.03,0-.06-.01-.09,3.52-.09,7.04-.17,10.56-.25.39.84.79,2.09,1.18,3.73-.04,0-.08,0-.12.01-.5-.47-.99-.9-1.48-1.31-.91-.77-1.56-1.22-1.98-1.48-.42-.25-.86-.42-1.32-.51-.46-.09-1.06-.13-1.82-.11-.06,0-.13,0-.19,0,.29,1.24.59,2.85.88,4.81.07,0,.14-.02.21-.02.41-.05.76-.15,1.06-.31.3-.15.58-.44.85-.83.27-.39.55-.94.82-1.57.04,0,.08,0,.12-.01.35,1.47.7,3.34,1.06,5.59-.04,0-.08,0-.13.01-.83-1.17-1.5-1.84-2.04-2.17-.54-.33-1.1-.45-1.69-.38-.07,0-.14.02-.21.02.3,2.04.6,4.46.9,7.26.12,0,.23-.02.35-.03.86-.06,1.52-.24,1.97-.54.45-.3.83-.76,1.13-1.38.3-.61.73-1.67,1.25-3.02.06-.17.13-.34.19-.51.22-.52.43-1.03.63-1.51.04,0,.08,0,.12-.01Z" style="fill: #fff; stroke-width: 0px;"/>
    <path d="M337.98,334.13c.45,2.03.91,4.29,1.37,6.79-.03.08-.06.15-.1.23-3.43-.06-6.87-.11-10.3-.17-.01-.1-.03-.19-.04-.29,1.72-2.13,3.37-4.2,4.96-6.11-.01-.03-.03-.06-.04-.09-.38.11-.63.17-.77.17-1.31.03-2.59-.44-3.79-1.31-1.21-.87-2.22-2-3.05-3.27-.83-1.27-1.38-2.56-1.67-3.78-.4-1.66-.3-2.68.27-3.36.56-.67,1.25-1.01,2.09-1.19.83-.18,1.49-.25,1.99-.26,1.11-.01,2.21.05,3.34.25,1.12.21,2.15.55,3.07,1.18.92.64,1.62,1.51,2.08,2.71.55,1.44.67,2.95.32,4.25-.35,1.3-.98,2.46-1.87,3.34.02-.02.05-.04.07-.06-.95,1.08-1.93,2.23-2.93,3.43,0,.02,0,.04.01.07,1.03,0,2.06,0,3.09.01.75,0,1.23-.25,1.45-.73.22-.48.33-1.09.33-1.81.04,0,.09,0,.13,0ZM332.16,330.84c1.12,1.3,2.06,2.05,2.78,2.03.16,0,.27-.02.34-.07.25-.12.4-.41.43-.86.04-.44-.03-1.01-.19-1.68-.43-1.72-1.41-3.68-2.88-5.37-1.13-1.31-2.16-1.99-3.11-2.42-.95-.42-1.7-.56-2.3-.55-.35.01-.58.08-.7.24-.12.16-.1.4.07.77.28.66.99,1.64,2.18,3.35,1.12,1.62,2.25,3.25,3.38,4.54Z" style="fill: #fff; stroke-width: 0px;"/>
    <path d="M350.52,327.35c.93,2.04,1.85,4.5,2.78,7.38-4.09-.35-8.19-.53-12.28-.58-.01-.06-.03-.13-.04-.19.27-.54.53-1.06.79-1.56-1.43-5.49-2.85-9.01-4.28-10.55-.48-.14-.96-.26-1.43-.36-.01-.01-.03-.02-.04-.04,3.52-.05,7.04-.1,10.56-.12.92.87,1.85,2.17,2.77,3.89-.04,0-.08,0-.12-.01-.66-.56-1.32-1.08-1.97-1.54-1.22-.88-2.09-1.32-2.64-1.57-.55-.24-1.08-.39-1.59-.47-.51-.08-1.14-.12-1.9-.11-.06,0-.13,0-.19,0,.87.76,1.74,2.11,2.61,4.03.07,0,.14,0,.21,0,.41.02.75-.02,1.01-.12.26-.1.47-.32.63-.65.16-.32.27-.8.32-1.34.04,0,.08,0,.12,0,.9,1.41,1.8,3.3,2.7,5.68-.04,0-.08,0-.13-.01-1.13-1.37-2.01-2.16-2.66-2.59-.65-.42-1.26-.63-1.85-.66-.07,0-.14,0-.21,0,.89,2.02,1.78,4.65,2.66,7.88.12,0,.23.01.35.02.86.04,1.5-.07,1.89-.33.4-.26.68-.71.86-1.31.18-.6.38-1.64.59-2.91.02-.16.05-.32.07-.48.09-.49.18-.95.26-1.39.04,0,.08,0,.12.01Z" style="fill: #fff; stroke-width: 0px;"/>
    <path d="M361.48,328.37c2.46,2.67,5,5.65,7.62,8.42.04.07.08.14.12.21-2.05-.42-4.1-.79-6.15-1.11-.02-.05-.05-.11-.07-.16.16-.41.33-.8.48-1.17-2.02-2.51-4-4.93-5.92-7.04-.16-.03-.32-.06-.47-.09,1,1.9,2.01,4.05,3.01,6.44.59.56,1.18,1.13,1.77,1.69.02.05.05.11.07.16-2.2-.32-4.39-.59-6.59-.8-.02-.06-.04-.12-.06-.18.19-.52.38-1.01.56-1.48-1.92-5.15-3.84-8.91-5.76-11.26-.53-.23-1.06-.44-1.58-.62-.02-.02-.04-.04-.06-.06,2.03-.01,4.06-.02,6.1-.02,1.64,0,3.07.18,4.31.69,1.25.5,2.23,1.43,2.93,2.67.59,1.06.68,1.9.22,2.46-.45.57-1.63.73-3.53.57.03.05.05.1.08.15.98.16,1.95.34,2.92.54ZM356.88,327.04c.21.04.41.08.62.12.93.18,1.37-.02,1.31-.61-.06-.59-.38-1.38-.96-2.32-.52-.85-1.08-1.51-1.67-1.98-.59-.47-1.26-.68-2.01-.69-.26,0-.51,0-.77-.01,1.16,1.51,2.32,3.34,3.47,5.5Z" style="fill: #fff; stroke-width: 0px;"/>
  </g>
  <g>
    <polygon points="30.18 168.77 29.18 168.77 29.18 181.1 26.69 181.1 29.68 186.28 32.67 181.1 30.18 181.1 30.18 168.77" style="fill: #fff; stroke-width: 0px;"/>
    <polygon points="29.68 114 32.67 108.81 30.18 108.81 30.18 96.49 29.18 96.49 29.18 108.81 26.69 108.81 29.68 114" style="fill: #fff; stroke-width: 0px;"/>
    <polygon points="30.18 239.92 29.18 239.92 29.18 252.25 26.69 252.25 29.68 257.43 32.67 252.25 30.18 252.25 30.18 239.92" style="fill: #fff; stroke-width: 0px;"/>
  </g>
</svg>