<?xml version="1.0" encoding="UTF-8"?>
<svg id="Layer_1" data-name="Layer 1" xmlns="http://www.w3.org/2000/svg" width="213.36mm" height="128.5mm" viewBox="0 0 604.8 364.25">
  <rect width="604.8" height="364.25" style="fill: #fffef3; stroke: #231f20; stroke-miterlimit: 10;"/>
  <g>
    <g>
      <rect x="124.83" y="42.39" width="430.87" height="54.42" rx="9.51" ry="9.51" style="fill: #d3d3d3;"/>
      <g>
        <circle cx="102.68" cy="63.65" r="17.4" style="fill: red;"/>
        <circle cx="145.88" cy="63.65" r="17.4" style="fill: red;"/>
        <circle cx="189.08" cy="63.65" r="17.4" style="fill: red;"/>
        <circle cx="232.27" cy="63.65" r="17.4" style="fill: red;"/>
        <circle cx="275.47" cy="63.65" r="17.4" style="fill: red;"/>
        <circle cx="318.67" cy="63.65" r="17.4" style="fill: red;"/>
        <circle cx="361.86" cy="63.65" r="17.4" style="fill: red;"/>
        <circle cx="405.06" cy="63.65" r="17.4" style="fill: red;"/>
        <circle cx="64.82" cy="63.65" r="12.07" style="fill: red;"/>
        <circle cx="29.53" cy="63.65" r="14.82" style="fill: lime;"/>
        <circle cx="575.27" cy="63.65" r="14.82" style="fill: blue;"/>
        <circle cx="448.26" cy="63.65" r="17.4" style="fill: red;"/>
        <circle cx="491.46" cy="63.65" r="17.4" style="fill: red;"/>
        <circle cx="534.65" cy="63.65" r="17.4" style="fill: red;"/>
      </g>
      <g>
        <path d="m130.96,37.02c0,.29.17.51.51.66.34.15.91.23,1.71.23.73,0,1.24-.05,1.51-.16.28-.11.41-.27.41-.49,0-.16-.05-.28-.15-.36-.1-.08-.3-.14-.59-.18-.29-.04-.78-.09-1.45-.13-.89-.06-1.61-.17-2.16-.32-.54-.15-.94-.37-1.21-.66-.26-.29-.39-.67-.39-1.14,0-.65.32-1.13.97-1.46s1.55-.49,2.7-.49c1.25,0,2.21.19,2.89.56.68.37,1.03.91,1.06,1.62h-1.94c0-.28-.16-.48-.49-.6-.32-.12-.85-.18-1.58-.18-.64,0-1.08.05-1.32.14-.24.1-.36.24-.36.43,0,.14.05.25.15.32.1.08.29.14.58.19.29.05.72.1,1.32.15.96.07,1.7.16,2.21.26s.92.29,1.23.56c.31.27.46.67.46,1.21,0,.78-.33,1.33-.98,1.65-.65.32-1.59.48-2.83.48-1.36,0-2.4-.18-3.11-.53s-1.09-.94-1.13-1.75h1.95Z"/>
        <path d="m137.62,32.7h6.66v1.46h-4.8v1.03h4.62v1.46h-4.62v1.03h4.8v1.46h-6.66v-6.43Z"/>
        <path d="m153.16,38.76l-.95.94-.92-.85c-.65.3-1.44.45-2.38.45-1.34,0-2.38-.3-3.09-.89-.72-.59-1.08-1.43-1.08-2.51s.36-1.91,1.08-2.5c.72-.59,1.75-.89,3.09-.89.89,0,1.65.13,2.28.4.62.27,1.1.65,1.42,1.16s.48,1.11.48,1.82c0,.86-.24,1.58-.71,2.13l.78.73Zm-3.22-1.17l-1-.94.94-.95,1.1,1.03c.11-.25.16-.53.16-.84,0-1.2-.74-1.8-2.23-1.8s-2.22.6-2.22,1.8.74,1.82,2.22,1.82c.4,0,.74-.04,1.03-.13Z"/>
        <path d="m161.29,35.99c0,1.11-.32,1.94-.96,2.49-.64.55-1.64.82-3,.82s-2.37-.27-3.01-.82c-.64-.55-.95-1.38-.95-2.49v-3.29h1.86v3.23c0,.53.15.96.44,1.29s.85.5,1.66.5,1.36-.17,1.66-.5c.3-.34.45-.76.45-1.29v-3.23h1.85v3.29Z"/>
        <path d="m161.98,32.7h6.66v1.46h-4.8v1.03h4.62v1.46h-4.62v1.03h4.8v1.46h-6.66v-6.43Z"/>
        <path d="m172.03,32.7l3.79,4.61v-4.61h1.85v6.43h-2.73l-3.79-4.61v4.61h-1.86v-6.43h2.74Z"/>
        <path d="m179.27,33.38c.69-.58,1.68-.87,2.97-.87,1.16,0,2.08.24,2.75.71s1.05,1.13,1.15,1.97h-1.98c-.07-.32-.26-.58-.58-.78-.32-.2-.77-.31-1.33-.31-.68,0-1.19.16-1.53.47-.34.31-.51.76-.51,1.33s.17,1.02.52,1.34c.34.32.85.48,1.53.48.56,0,1.01-.1,1.33-.31.32-.21.52-.47.58-.8h1.98c-.1.85-.48,1.51-1.15,1.98-.67.47-1.58.71-2.75.71-1.29,0-2.28-.29-2.97-.87-.69-.58-1.03-1.43-1.03-2.53s.34-1.94,1.03-2.52Z"/>
        <path d="m186.7,32.7h6.66v1.46h-4.8v1.03h4.62v1.46h-4.62v1.03h4.8v1.46h-6.66v-6.43Z"/>
      </g>
      <g>
        <path d="m91.38,32.7h1.86v4.84h4.46v1.58h-6.32v-6.43Z"/>
        <path d="m98.28,32.7h6.66v1.46h-4.8v1.03h4.62v1.46h-4.62v1.03h4.8v1.46h-6.66v-6.43Z"/>
        <path d="m108.34,32.7l3.79,4.61v-4.61h1.85v6.43h-2.73l-3.79-4.61v4.61h-1.86v-6.43h2.74Z"/>
      </g>
      <g>
        <path d="m52.06,32.7h1.73v4.97h2.15v1.46h-6.17v-1.46h2.15v-3.39s-1.71.56-1.71.56l-.44-1.41,2.29-.72Z"/>
        <path d="m58.84,32.15h1.68l-2.49,8.33h-1.68l2.49-8.33Z"/>
        <path d="m67.5,35.67c-.3.31-.67.54-1.08.71s-.95.33-1.6.5c-.55.14-.95.27-1.21.38-.26.11-.43.25-.5.41h4.8v1.46h-7.06v-.88c.01-.47.17-.87.48-1.18.31-.31.67-.56,1.09-.73.42-.17.96-.36,1.62-.55.47-.14.83-.25,1.09-.35.26-.1.47-.21.64-.36.17-.14.26-.31.26-.5,0-.23-.1-.41-.3-.54-.2-.12-.55-.18-1.06-.18-.57,0-1,.09-1.29.27-.29.18-.43.46-.43.85h-1.94c.05-.85.42-1.47,1.08-1.86.67-.39,1.54-.59,2.62-.59s1.83.16,2.4.49c.58.33.86.82.86,1.48,0,.48-.15.87-.45,1.18Z"/>
        <path d="m70.86,32.15h1.68l-2.49,8.33h-1.68l2.49-8.33Z"/>
        <path d="m78.71,34.99c.39.17.7.42.91.73s.32.7.32,1.13c0,.77-.3,1.38-.9,1.8-.6.43-1.45.64-2.54.64s-1.95-.18-2.63-.55c-.69-.37-1.05-.94-1.08-1.71h1.95c.03.28.19.49.48.64s.7.23,1.24.23.9-.09,1.15-.27c.25-.18.38-.44.38-.77,0-.66-.45-.99-1.36-.99-.29,0-.57.04-.83.12s-.56.22-.92.42l-1.72-.35.6-3.37h5.66v1.4h-4.17l-.18,1.12c.34-.16.69-.28,1.04-.36.35-.08.75-.13,1.2-.13.53,0,.99.09,1.38.26Z"/>
      </g>
      <g>
        <path d="m17.44,34.28v-1.58h7.74v1.58h-2.93v4.84h-1.86v-4.84h-2.94Z"/>
        <path d="m32.92,36.85c.2.21.29.5.29.85v1.41h-1.85v-1.06c0-.21-.02-.37-.06-.47s-.12-.18-.23-.22c-.11-.05-.27-.07-.49-.07h-3.01v1.83h-1.86v-6.43h4.93c.85,0,1.49.17,1.94.51.44.34.67.84.67,1.52,0,.9-.38,1.49-1.14,1.77.35.03.62.15.81.36Zm-5.34-2.64v1.56h2.61c.25,0,.45-.01.59-.04.14-.02.26-.09.36-.21.1-.11.15-.29.15-.53s-.05-.42-.15-.54c-.1-.11-.22-.18-.36-.21-.14-.03-.34-.04-.59-.04h-2.61Z"/>
        <path d="m34.23,34.06c.34-.51.81-.9,1.43-1.16.61-.26,1.32-.39,2.13-.39.74,0,1.4.11,1.96.32.56.22,1,.51,1.32.9.32.38.5.81.54,1.3h-1.98c-.07-.27-.25-.49-.56-.67-.31-.18-.73-.27-1.28-.27-.76,0-1.31.18-1.63.54s-.49.8-.49,1.32.17.99.52,1.35c.34.36.96.54,1.83.54.41,0,.77-.03,1.08-.09s.62-.16.94-.3v-.61h-2.28v-1.21h3.85v2.75c-.63.35-1.23.6-1.81.73-.58.13-1.2.2-1.88.2-.85,0-1.59-.13-2.22-.4-.63-.26-1.12-.65-1.47-1.16-.35-.51-.52-1.12-.52-1.85s.17-1.33.51-1.84Z"/>
      </g>
      <g>
        <path d="m563.79,38.41c-.72-.59-1.08-1.43-1.08-2.51s.36-1.91,1.08-2.5c.72-.59,1.75-.89,3.1-.89.89,0,1.65.13,2.28.4.62.27,1.1.65,1.42,1.16s.48,1.11.48,1.82-.16,1.32-.48,1.83c-.32.51-.79.9-1.42,1.17s-1.38.41-2.28.41c-1.34,0-2.38-.3-3.1-.89Zm5.33-2.51c0-1.2-.74-1.8-2.23-1.8s-2.22.6-2.22,1.8.74,1.82,2.22,1.82,2.23-.61,2.23-1.82Z"/>
        <path d="m579.54,35.99c0,1.11-.32,1.94-.96,2.49-.64.55-1.64.82-3,.82s-2.37-.27-3.01-.82c-.64-.55-.95-1.38-.95-2.49v-3.29h1.86v3.23c0,.53.15.96.44,1.29s.85.5,1.66.5,1.36-.17,1.66-.5c.3-.34.45-.76.45-1.29v-3.23h1.85v3.29Z"/>
        <path d="m580.08,34.28v-1.58h7.74v1.58h-2.93v4.84h-1.86v-4.84h-2.94Z"/>
      </g>
      <circle cx="145.88" cy="88.58" r="3.67" style="fill: #f0f;"/>
      <circle cx="29.53" cy="88.58" r="3.67" style="fill: #f0f;"/>
      <circle cx="189.08" cy="88.58" r="3.67" style="fill: #f0f;"/>
      <circle cx="232.27" cy="88.58" r="3.67" style="fill: #f0f;"/>
      <circle cx="275.47" cy="88.58" r="3.67" style="fill: #f0f;"/>
      <circle cx="318.67" cy="88.58" r="3.67" style="fill: #f0f;"/>
      <circle cx="361.86" cy="88.58" r="3.67" style="fill: #f0f;"/>
      <circle cx="405.06" cy="88.58" r="3.67" style="fill: #f0f;"/>
      <circle cx="448.26" cy="88.58" r="3.67" style="fill: #f0f;"/>
      <circle cx="491.46" cy="88.58" r="3.67" style="fill: #f0f;"/>
      <circle cx="534.65" cy="88.58" r="3.67" style="fill: #f0f;"/>
      <circle cx="575.27" cy="88.58" r="3.67" style="fill: #f0f;"/>
    </g>
    <g>
      <rect x="124.83" y="114.15" width="430.87" height="54.42" rx="9.51" ry="9.51" style="fill: #d3d3d3;"/>
      <g>
        <circle cx="102.68" cy="135.41" r="17.4" style="fill: red;"/>
        <circle cx="145.88" cy="135.41" r="17.4" style="fill: red;"/>
        <circle cx="189.08" cy="135.41" r="17.4" style="fill: red;"/>
        <circle cx="232.27" cy="135.41" r="17.4" style="fill: red;"/>
        <circle cx="275.47" cy="135.41" r="17.4" style="fill: red;"/>
        <circle cx="318.67" cy="135.41" r="17.4" style="fill: red;"/>
        <circle cx="361.86" cy="135.41" r="17.4" style="fill: red;"/>
        <circle cx="405.06" cy="135.41" r="17.4" style="fill: red;"/>
        <circle cx="64.82" cy="135.41" r="12.07" style="fill: red;"/>
        <circle cx="29.53" cy="135.41" r="14.82" style="fill: lime;"/>
        <circle cx="575.27" cy="135.41" r="14.82" style="fill: blue;"/>
        <circle cx="448.26" cy="135.41" r="17.4" style="fill: red;"/>
        <circle cx="491.46" cy="135.41" r="17.4" style="fill: red;"/>
        <circle cx="534.65" cy="135.41" r="17.4" style="fill: red;"/>
      </g>
      <circle cx="145.88" cy="160.34" r="3.67" style="fill: #f0f;"/>
      <circle cx="29.53" cy="160.34" r="3.67" style="fill: #f0f;"/>
      <circle cx="189.08" cy="160.34" r="3.67" style="fill: #f0f;"/>
      <circle cx="232.27" cy="160.34" r="3.67" style="fill: #f0f;"/>
      <circle cx="275.47" cy="160.34" r="3.67" style="fill: #f0f;"/>
      <circle cx="318.67" cy="160.34" r="3.67" style="fill: #f0f;"/>
      <circle cx="361.86" cy="160.34" r="3.67" style="fill: #f0f;"/>
      <circle cx="405.06" cy="160.34" r="3.67" style="fill: #f0f;"/>
      <circle cx="448.26" cy="160.34" r="3.67" style="fill: #f0f;"/>
      <circle cx="491.46" cy="160.34" r="3.67" style="fill: #f0f;"/>
      <circle cx="534.65" cy="160.34" r="3.67" style="fill: #f0f;"/>
      <circle cx="575.27" cy="160.34" r="3.67" style="fill: #f0f;"/>
    </g>
    <g>
      <rect x="124.83" y="185.92" width="430.87" height="54.42" rx="9.51" ry="9.51" style="fill: #d3d3d3;"/>
      <g>
        <circle cx="102.68" cy="207.18" r="17.4" style="fill: red;"/>
        <circle cx="145.88" cy="207.18" r="17.4" style="fill: red;"/>
        <circle cx="189.08" cy="207.18" r="17.4" style="fill: red;"/>
        <circle cx="232.27" cy="207.18" r="17.4" style="fill: red;"/>
        <circle cx="275.47" cy="207.18" r="17.4" style="fill: red;"/>
        <circle cx="318.67" cy="207.18" r="17.4" style="fill: red;"/>
        <circle cx="361.86" cy="207.18" r="17.4" style="fill: red;"/>
        <circle cx="405.06" cy="207.18" r="17.4" style="fill: red;"/>
        <circle cx="64.82" cy="207.18" r="12.07" style="fill: red;"/>
        <circle cx="29.53" cy="207.18" r="14.82" style="fill: lime;"/>
        <circle cx="575.27" cy="207.18" r="14.82" style="fill: blue;"/>
        <circle cx="448.26" cy="207.18" r="17.4" style="fill: red;"/>
        <circle cx="491.46" cy="207.18" r="17.4" style="fill: red;"/>
        <circle cx="534.65" cy="207.18" r="17.4" style="fill: red;"/>
      </g>
      <circle cx="145.88" cy="232.11" r="3.67" style="fill: #f0f;"/>
      <circle cx="29.53" cy="232.11" r="3.67" style="fill: #f0f;"/>
      <circle cx="189.08" cy="232.11" r="3.67" style="fill: #f0f;"/>
      <circle cx="232.27" cy="232.11" r="3.67" style="fill: #f0f;"/>
      <circle cx="275.47" cy="232.11" r="3.67" style="fill: #f0f;"/>
      <circle cx="318.67" cy="232.11" r="3.67" style="fill: #f0f;"/>
      <circle cx="361.86" cy="232.11" r="3.67" style="fill: #f0f;"/>
      <circle cx="405.06" cy="232.11" r="3.67" style="fill: #f0f;"/>
      <circle cx="448.26" cy="232.11" r="3.67" style="fill: #f0f;"/>
      <circle cx="491.46" cy="232.11" r="3.67" style="fill: #f0f;"/>
      <circle cx="534.65" cy="232.11" r="3.67" style="fill: #f0f;"/>
      <circle cx="575.27" cy="232.11" r="3.67" style="fill: #f0f;"/>
    </g>
    <g>
      <rect x="124.83" y="257.68" width="430.87" height="54.42" rx="9.51" ry="9.51" style="fill: #d3d3d3;"/>
      <g>
        <circle cx="102.68" cy="278.94" r="17.4" style="fill: red;"/>
        <circle cx="145.88" cy="278.94" r="17.4" style="fill: red;"/>
        <circle cx="189.08" cy="278.94" r="17.4" style="fill: red;"/>
        <circle cx="232.27" cy="278.94" r="17.4" style="fill: red;"/>
        <circle cx="275.47" cy="278.94" r="17.4" style="fill: red;"/>
        <circle cx="318.67" cy="278.94" r="17.4" style="fill: red;"/>
        <circle cx="361.86" cy="278.94" r="17.4" style="fill: red;"/>
        <circle cx="405.06" cy="278.94" r="17.4" style="fill: red;"/>
        <circle cx="64.82" cy="278.94" r="12.07" style="fill: red;"/>
        <circle cx="29.53" cy="278.94" r="14.82" style="fill: lime;"/>
        <circle cx="575.27" cy="278.94" r="14.82" style="fill: blue;"/>
        <circle cx="448.26" cy="278.94" r="17.4" style="fill: red;"/>
        <circle cx="491.46" cy="278.94" r="17.4" style="fill: red;"/>
        <circle cx="534.65" cy="278.94" r="17.4" style="fill: red;"/>
      </g>
      <circle cx="145.88" cy="303.87" r="3.67" style="fill: #f0f;"/>
      <circle cx="29.53" cy="303.87" r="3.67" style="fill: #f0f;"/>
      <circle cx="189.08" cy="303.87" r="3.67" style="fill: #f0f;"/>
      <circle cx="232.27" cy="303.87" r="3.67" style="fill: #f0f;"/>
      <circle cx="275.47" cy="303.87" r="3.67" style="fill: #f0f;"/>
      <circle cx="318.67" cy="303.87" r="3.67" style="fill: #f0f;"/>
      <circle cx="361.86" cy="303.87" r="3.67" style="fill: #f0f;"/>
      <circle cx="405.06" cy="303.87" r="3.67" style="fill: #f0f;"/>
      <circle cx="448.26" cy="303.87" r="3.67" style="fill: #f0f;"/>
      <circle cx="491.46" cy="303.87" r="3.67" style="fill: #f0f;"/>
      <circle cx="534.65" cy="303.87" r="3.67" style="fill: #f0f;"/>
      <circle cx="575.27" cy="303.87" r="3.67" style="fill: #f0f;"/>
    </g>
  </g>
</svg>